<svg xmlns="http://www.w3.org/2000/svg" viewBox="0 0 359.45 537.05"><g id="Layer_2" data-name="Layer 2"><g id="Layer_1-2" data-name="Layer 1"><g id="BLACK"><g id="Обводка"><path d="M179.72,12c72.67,0,117.74,57.73,117.74,108.1,0,17.26-3.2,31.94-3.2,40.61,0,57.07,53.19,90.91,53.19,187.18,0,39.84-27.88,111.06-65.06,135,0,9.84,5.87,42.16-102.67,42.16S77.05,492.73,77.05,482.89c-37.17-23.94-65-95.16-65-135,0-96.27,53.18-130.11,53.18-187.18C65.18,152,62,137.36,62,120.1,62,69.73,107.05,12,179.72,12m0-12C143.2,0,109.58,13.76,85,38.76,62.77,61.45,50,91.1,50,120.1a234.31,234.31,0,0,0,2.09,28.38c.59,5,1.1,9.34,1.1,12.23,0,22-9.36,41-20.2,63C18.29,253.58,0,290.7,0,347.89c0,21.79,7.34,51.1,19.65,78.39,7.45,16.54,22.86,45.57,45.43,62.84A36,36,0,0,0,75.55,512.9c15.86,16.25,49.93,24.15,104.17,24.15S268,529.15,283.9,512.9a36.05,36.05,0,0,0,10.47-23.78c22.57-17.27,38-46.3,45.43-62.84,12.3-27.29,19.65-56.6,19.65-78.39,0-57.19-18.29-94.31-33-124.14-10.84-22-20.2-41-20.2-63,0-2.89.52-7.22,1.11-12.23a234.31,234.31,0,0,0,2.09-28.38c0-29-12.78-58.65-35.06-81.34C249.87,13.76,216.24,0,179.72,0Z"/></g></g></g></g></svg>