<svg xmlns="http://www.w3.org/2000/svg" viewBox="0 0 359.45 537.05"><defs><style>.cls-1{fill:#a41623;}.cls-2{fill:#f42b03;}.cls-3{fill:#e89005;}.cls-4{fill:#f7e6cb;}.cls-5{fill:#ff7bac;}.cls-6{fill:#ed1c24;}.cls-7{fill:#fbb03b;}.cls-8{fill:#603813;}.cls-9{fill:#fff;}.cls-10{fill:#d84a05;}</style></defs><g id="Layer_2" data-name="Layer 2"><g id="Layer_1-2" data-name="Layer 1"><g id="orange"><path id="Обводка" class="cls-1" d="M179.72,12c72.67,0,117.74,57.73,117.74,108.1,0,17.26-3.2,31.94-3.2,40.61,0,57.07,53.19,90.92,53.19,187.18,0,39.84-27.88,111.06-65.06,135,0,9.84,5.87,42.16-102.67,42.16S77.05,492.73,77.05,482.89c-37.17-23.94-65-95.16-65-135,0-96.26,53.18-130.11,53.18-187.18C65.18,152,62,137.36,62,120.1,62,69.73,107.05,12,179.72,12m0-12C143.2,0,109.58,13.76,85,38.76,62.77,61.45,50,91.1,50,120.1a234.31,234.31,0,0,0,2.09,28.38c.59,5,1.1,9.34,1.1,12.23,0,22-9.36,41-20.2,63C18.29,253.58,0,290.7,0,347.89c0,21.79,7.34,51.1,19.65,78.39,7.45,16.54,22.86,45.57,45.43,62.84A36,36,0,0,0,75.55,512.9c15.86,16.25,49.93,24.15,104.17,24.15S268,529.15,283.9,512.9a36.05,36.05,0,0,0,10.47-23.78c22.57-17.27,38-46.3,45.43-62.84,12.3-27.29,19.65-56.6,19.65-78.39,0-57.19-18.29-94.31-33-124.14-10.84-22-20.2-41-20.2-63,0-2.89.52-7.22,1.11-12.23a234.31,234.31,0,0,0,2.09-28.38c0-29-12.78-58.65-35.06-81.34C249.87,13.76,216.24,0,179.72,0Z"/><g id="Ноги"><path class="cls-2" d="M196,474.21c63.46-1,108.82-36,111.66-39,2.61-2.82,12.39-11,15-25.38-1.37-2.22-5.48-9.56-7.54-13.67-.49,7.73-4.67,23.21-13.59,31.8-4-2.27-10.41-8.12-12.3-12.17-.9,15.26-9.88,30.1-17.74,33.3a26,26,0,0,1-13.66-12c-3.77,13.3-14,22.61-22.14,25.16-6.23-.54-11.15-4.11-15.71-9.82C212.46,466.86,196,474.21,196,474.21Z"/><path class="cls-2" d="M179.72,503c-24.6,0-62-1.63-88.84-17.48C93.36,510.6,152,513,179.72,513s86.37-2.42,88.85-27.46C241.76,501.41,204.33,503,179.72,503Z"/><path class="cls-2" d="M179.72,481.08c-42.94,0-90.93-9.61-124.45-36.61,29.61,49.89,95.55,51.39,124.45,51.39s94.85-1.5,124.45-51.39C270.65,471.47,222.67,481.08,179.72,481.08Z"/><path class="cls-2" d="M163.4,474.21c-63.45-1-108.81-36-111.65-39-2.61-2.82-12.39-11-15-25.38,1.37-2.22,5.48-9.56,7.53-13.67.49,7.73,4.67,23.21,13.6,31.8,3.95-2.27,10.4-8.12,12.29-12.17.9,15.26,9.88,30.1,17.74,33.3a26,26,0,0,0,13.67-12c3.76,13.3,14,22.61,22.14,25.16,6.23-.54,11.15-4.11,15.7-9.82C147,466.86,163.4,474.21,163.4,474.21Z"/></g><path id="Тело" class="cls-3" d="M179.72,473.2c-15.4,0-31.94-12.62-40.35-30.23-2.74,7.24-10,12.72-15.16,14.29-6.39-2.29-17.81-12.79-21.23-30-4.93,9.1-7.66,12.95-15.16,17.25-12.14-10.11-14.68-26.08-14.94-42-4.43,11.61-8.79,15.85-14.61,20.35-7.19-10.63-11-25.83-9.88-46.66-4.4,10.66-9.78,22-14.87,29.54-4.86-11.38-10.73-26.18-11.31-38.05C84.63,337.19,85.66,264,55.14,228.34a19.25,19.25,0,0,1,3.28-6.06c31.42,27.19,87.5,27.45,121.3,0,33.8,27.45,89.89,27.19,121.31,0a19.43,19.43,0,0,1,3.27,6.06C273.78,264,274.82,337.19,337.23,367.65c-.58,11.87-6.45,26.67-11.31,38.05-5.08-7.53-10.46-18.88-14.87-29.54,1.08,20.83-2.68,36-9.88,46.66-5.82-4.5-10.17-8.74-14.6-20.35-.27,15.92-2.81,31.89-14.94,42-7.5-4.3-10.24-8.15-15.16-17.25-3.43,17.25-14.85,27.75-21.23,30-5.15-1.57-12.42-7.05-15.16-14.29C211.66,460.58,195.13,473.2,179.72,473.2Z"/><g id="Звезды"><path class="cls-1" d="M308.74,247.81l12.39,28.56-23.35-16.43,20,21.65-26.35-2,25.57,8-23.48,9.52L319.26,294l-19.15,21.21,22.36-15.72-9,32,13.48-28.85L330,341.3l2.58-36.23,2.93,7.27c-2-20-5.27-26.82-10.5-38.71Z"/><path class="cls-1" d="M50.71,247.81,38.32,276.37l23.34-16.43L41.71,281.59l26.34-2-25.56,8L66,297.11,40.18,294l19.15,21.21L37,299.45l9,32L32.54,302.57,29.41,341.3l-2.57-36.23-2.93,7.27c2-20,5.27-26.82,10.49-38.71Z"/></g><g id="Платок"><path class="cls-2" d="M232.89,225c28.76,3.19,53.09-5,62.09-12.33-5.22-8.35-10.76-17.83-11.61-30.55C280.37,204.19,253,220.52,232.89,225Z"/><path class="cls-2" d="M216.46,222.28c30.57-3.12,72.78-31.29,62-62.61C272.88,184.52,245.09,213.15,216.46,222.28Z"/><path class="cls-2" d="M179.72,30.1c-41.72,0-77,21.79-92.09,60.82,13.88,2.15,74.14-.51,86.6-55.95,0,45.85-42.78,64.63-88.86,61.6C82.82,105,82,114,82,123.47c0,57.92,41.41,95.58,84.52,95.58-47.94,28.34-93,7.86-106,1.21,40.57,31.56,99.2,16.56,119.3-4,20.11,20.54,78.74,35.54,119.3,4-13,6.65-58.11,27.13-106-1.21,43.11,0,84.52-37.66,84.52-95.58,0-9.43-.88-18.47-3.42-26.9C228,99.6,185.22,80.82,185.22,35c12.45,55.44,72.71,58.1,86.6,56C256.72,51.89,221.45,30.1,179.72,30.1Z"/><path class="cls-2" d="M126.55,225c-28.76,3.19-53.08-5-62.08-12.33,5.21-8.35,10.76-17.83,11.61-30.55C79.08,204.19,106.4,220.52,126.55,225Z"/><path class="cls-2" d="M143,222.28c-30.58-3.12-72.78-31.29-62-62.61C86.56,184.52,114.36,213.15,143,222.28Z"/></g><g id="Лицо"><path class="cls-4" d="M179.72,205.11c-9,0-90.46,1.87-81.75-98.17,23.89-.2,69.67-14.58,81.75-47.25,12.08,32.67,57.87,47.05,81.76,47.25C270.19,207,188.74,205.11,179.72,205.11Z"/><ellipse class="cls-5" cx="225.15" cy="171.14" rx="12.19" ry="15.39" transform="translate(36.62 381.94) rotate(-85.43)"/><path class="cls-6" d="M179.72,180c-1.66,0-6.65-.39-8.56-4.5-4.74,6.62-11.93,1.71-16.24-1.67,0,5.24,9.79,16.58,24.8,16.58s24.8-11.34,24.8-16.58c-4.3,3.38-11.49,8.29-16.24,1.67C186.38,179.63,181.39,180,179.72,180Z"/><path class="cls-7" d="M179.72,77.23c-3.86,12.49-9.74,13-15.54,14.71,5.61,1.7,12.9,1.74,15.54,17,2.64-15.22,9.93-15.26,15.54-17C189.47,90.19,183.59,89.72,179.72,77.23Z"/><path class="cls-8" d="M187.7,117.7c11-7.21,18.39-11.69,29.81-11.69,12.5,0,20.73,4.94,27.9,12.12-6.45-10-14.88-15.74-28.51-15.74C205.3,102.39,197.87,106.52,187.7,117.7Z"/><ellipse cx="216.52" cy="137.35" rx="16.13" ry="18.37" transform="translate(34.74 318.19) rotate(-77.24)"/><path d="M190.63,143.67c5.09-6.7,8.54-20.91,25.92-20.91,19,0,22.19,17.52,23,20.91,1.76-3.45,2.25-6.7,1.57-9.12,2.32.88,8.92,1.71,14.38-4.23-5.33,2.28-12.25,2-15.85-.25,4.89.4,10.57-3.75,11.62-7-4.05,3-12.88,3.67-14.64,2.3a8.47,8.47,0,0,0,6.66-6c-2.66,1.94-7.41,3.09-11.38,2.73,2.73-1,4.46-5,4.33-6.79-1.43,1.8-5.35,4.08-8.87,4.5,1.83-2.67,2.12-5.8,1.57-6.65-.46,1.83-4.13,5.2-5.44,5.08.84-.77,1.72-4.07-.17-7-.29,3.16-2.12,6.1-3.08,6.31-.64-.17-1.16-2.86-1.49-6.67a10.65,10.65,0,0,0-1.89,6.46A9.81,9.81,0,0,1,214,111.8a8.37,8.37,0,0,0-.35,6.16c-1.9-.39-3.1-2.48-3.84-4.61a5.51,5.51,0,0,0,.33,5.18,5.91,5.91,0,0,1-4-3.71,5.28,5.28,0,0,0,1.33,4.5,5.37,5.37,0,0,1-5-2.23c-.2,2.15,1.68,3.38,1.86,3.68a9.06,9.06,0,0,1-5.15-1,3.41,3.41,0,0,0,2.7,2.71,6.23,6.23,0,0,1-4.95-.22,4.13,4.13,0,0,0,2,2.68,4.65,4.65,0,0,1-4.41.35c.9,1.94,1.69,2,2.18,2.16a6.45,6.45,0,0,1-3.85,1.28,3.15,3.15,0,0,0,2.25,1.1,5,5,0,0,1-3.1,2.1,2.25,2.25,0,0,0,1.7.28C193.79,135.44,192.36,138.59,190.63,143.67Z"/><circle class="cls-9" cx="214.48" cy="136.97" r="6.95"/><ellipse class="cls-5" cx="134.3" cy="171.14" rx="15.39" ry="12.19" transform="translate(-13.2 11.24) rotate(-4.57)"/><path class="cls-8" d="M171.75,117.7c-11-7.21-18.39-11.69-29.81-11.69-12.5,0-20.73,4.94-27.91,12.12,6.46-10,14.89-15.74,28.52-15.74C154.14,102.39,161.58,106.52,171.75,117.7Z"/><ellipse cx="142.93" cy="137.35" rx="18.37" ry="16.13" transform="translate(-26.8 34.95) rotate(-12.76)"/><path d="M168.82,143.67c-5.09-6.7-8.55-20.91-25.93-20.91-19,0-22.19,17.52-23,20.91-1.76-3.45-2.25-6.7-1.56-9.12-2.33.88-8.93,1.71-14.38-4.23,5.33,2.28,12.25,2,15.85-.25-4.89.4-10.58-3.75-11.62-7,4,3,12.87,3.67,14.63,2.3a8.49,8.49,0,0,1-6.66-6c2.67,1.94,7.42,3.09,11.39,2.73-2.74-1-4.47-5-4.34-6.79,1.44,1.8,5.35,4.08,8.87,4.5-1.82-2.67-2.12-5.8-1.56-6.65.45,1.83,4.13,5.2,5.44,5.08-.84-.77-1.73-4.07.17-7,.28,3.16,2.12,6.1,3.07,6.31.65-.17,1.17-2.86,1.49-6.67a10.65,10.65,0,0,1,1.89,6.46,9.69,9.69,0,0,0,2.92-5.58,8.32,8.32,0,0,1,.36,6.16c1.89-.39,3.1-2.48,3.83-4.61a5.49,5.49,0,0,1-.33,5.18,5.9,5.9,0,0,0,4-3.71,5.21,5.21,0,0,1-1.33,4.5,5.38,5.38,0,0,0,5-2.23c.19,2.15-1.69,3.38-1.86,3.68a9.08,9.08,0,0,0,5.15-1,3.41,3.41,0,0,1-2.7,2.71,6.24,6.24,0,0,0,5-.22,4.13,4.13,0,0,1-2.05,2.68,4.65,4.65,0,0,0,4.41.35c-.91,1.94-1.7,2-2.18,2.16a6.42,6.42,0,0,0,3.84,1.28,3.14,3.14,0,0,1-2.25,1.1,5.09,5.09,0,0,0,3.11,2.1,2.25,2.25,0,0,1-1.7.28C165.65,135.44,167.09,138.59,168.82,143.67Z"/><circle class="cls-9" cx="144.97" cy="136.97" r="6.95"/></g><path id="Обводка_цветок" data-name="Обводка цветок" class="cls-10" d="M179.72,250.26a32,32,0,0,1,19.55,6.44,27.67,27.67,0,0,1,9.86,14.93,27.52,27.52,0,0,1,14.23-4,28,28,0,0,1,4,.28c13.77,1.9,25.44,13.58,27.13,27.15a27.37,27.37,0,0,1-3.67,17.34,27.22,27.22,0,0,1,15.4,10c8.2,10.74,8.2,26.95,0,37.69a27.29,27.29,0,0,1-15.4,10,27.35,27.35,0,0,1,3.67,17.34c-1.69,13.57-13.36,25.24-27.13,27.15a29.46,29.46,0,0,1-3.95.27,27.64,27.64,0,0,1-14.24-4,27.67,27.67,0,0,1-9.86,14.92,32.84,32.84,0,0,1-39.09,0A27.73,27.73,0,0,1,150.31,411a27.57,27.57,0,0,1-14.22,4,29.5,29.5,0,0,1-4-.27c-13.78-1.91-25.44-13.58-27.13-27.15a27.35,27.35,0,0,1,3.67-17.34,27.29,27.29,0,0,1-15.4-10c-8.21-10.74-8.21-26.95,0-37.69a27.22,27.22,0,0,1,15.4-10A27.37,27.37,0,0,1,105,295.08c1.69-13.57,13.35-25.25,27.13-27.15a27.92,27.92,0,0,1,4-.28,27.52,27.52,0,0,1,14.23,4,27.72,27.72,0,0,1,9.87-14.93,32,32,0,0,1,19.54-6.44m0-14a46.15,46.15,0,0,0-28.09,9.35,42.22,42.22,0,0,0-8.35,8.66,42,42,0,0,0-7.2-.62,43.27,43.27,0,0,0-5.88.41,46.19,46.19,0,0,0-26.07,13.17,45.24,45.24,0,0,0-13,26.11,41.7,41.7,0,0,0,.26,11.77A41.3,41.3,0,0,0,82.14,314a45.74,45.74,0,0,0,0,54.69,41.34,41.34,0,0,0,9.22,8.85,41.63,41.63,0,0,0-.26,11.76,45.21,45.21,0,0,0,13,26.11,46.13,46.13,0,0,0,26.08,13.17,41.51,41.51,0,0,0,5.88.41,41,41,0,0,0,7.19-.62,42,42,0,0,0,8.35,8.66,46.85,46.85,0,0,0,56.19,0,42.22,42.22,0,0,0,8.35-8.66,42,42,0,0,0,7.2.62,43.12,43.12,0,0,0,5.87-.41,46.13,46.13,0,0,0,26.08-13.17,45.2,45.2,0,0,0,13-26.11,41.56,41.56,0,0,0-.25-11.76,41.09,41.09,0,0,0,9.21-8.85,45.71,45.71,0,0,0,0-54.69,41.31,41.31,0,0,0-9.21-8.85,41.56,41.56,0,0,0,.25-11.76,45.23,45.23,0,0,0-13-26.11,46.19,46.19,0,0,0-26.08-13.17,43,43,0,0,0-5.88-.41,41.87,41.87,0,0,0-7.19.62,42.22,42.22,0,0,0-8.35-8.66,46.2,46.2,0,0,0-28.1-9.35Z"/><path id="Точки" class="cls-2" d="M185.52,411a5,5,0,0,1-.46-10l.45,0a5,5,0,0,1,1,9.94L186,411Zm-16.12-.61a4.84,4.84,0,0,1-.84-.07l-.53-.09a5,5,0,1,1,1.73-9.85l.48.08a5,5,0,0,1-.84,9.93Zm32.34-3.14A5,5,0,0,1,200,397.6l.43-.16a5,5,0,1,1,3.58,9.33l-.52.2A5,5,0,0,1,201.74,407.29Zm-48.25-1.76a5,5,0,0,1-2.05-.44l-.52-.24a5,5,0,1,1,4.23-9.06l.4.18a5,5,0,0,1-2.06,9.56Zm63-5.91a5,5,0,0,1-2.8-9.15l.4-.27a5,5,0,1,1,5.62,8.27l-.43.3A5,5,0,0,1,216.52,399.62Zm-77.24-2.75a5,5,0,0,1-3.1-1.08l-.4-.32a5,5,0,0,1,6.21-7.84l.39.31a5,5,0,0,1-3.1,8.93Zm89.93-8a4.94,4.94,0,0,1-3.33-1.28,5,5,0,0,1-.39-7.06l.31-.35a5,5,0,1,1,7.5,6.62l-.36.4A5,5,0,0,1,229.21,388.87Zm-101.7-3.77a5,5,0,0,1-3.92-1.9l-.34-.42a5,5,0,0,1,7.89-6.15l.28.36a5,5,0,0,1-3.91,8.11Zm111.16-9.92a4.93,4.93,0,0,1-2.31-.57,5,5,0,0,1-2.11-6.75l.21-.4a5,5,0,0,1,8.9,4.54l-.25.5A5,5,0,0,1,238.67,375.18ZM118.82,370.9a5,5,0,0,1-4.55-2.93l-.23-.52a5,5,0,1,1,9.15-4l.18.41a5,5,0,0,1-2.48,6.62A4.89,4.89,0,0,1,118.82,370.9Zm125.61-11.34a5.4,5.4,0,0,1-1.12-.12,5,5,0,0,1-3.76-6l.1-.47a5,5,0,0,1,9.76,2.18l-.11.51A5,5,0,0,1,244.43,359.56ZM113.9,355a5,5,0,0,1-4.92-4.16l-.09-.53a5,5,0,0,1,9.87-1.62l.08.47A5,5,0,0,1,113.9,355Zm132.2-12a5,5,0,0,1-5-4.89v-.45a5,5,0,1,1,10-.32v.56a5,5,0,0,1-4.9,5.1Zm-132.78-4.61-.51,0a5,5,0,0,1-4.47-5.48l.06-.54a5,5,0,0,1,9.94,1.08l0,.47A5,5,0,0,1,113.32,338.39Zm130.31-11.84a5,5,0,0,1-4.81-3.66l-.13-.44a5,5,0,0,1,9.61-2.78l.15.53a5,5,0,0,1-3.47,6.16A4.84,4.84,0,0,1,243.63,326.55Zm-126.46-4.34a5.09,5.09,0,0,1-1.78-.33,5,5,0,0,1-2.89-6.46l.19-.49a5,5,0,0,1,9.33,3.62l-.18.44A5,5,0,0,1,117.17,322.21Zm120-11a5,5,0,0,1-4.33-2.49l-.24-.4a5,5,0,0,1,8.61-5.09l.28.47a5,5,0,0,1-4.32,7.51Zm-112.23-3.75a5,5,0,0,1-4.13-7.81l.31-.45a5,5,0,1,1,8.22,5.69l-.26.39A5,5,0,0,1,124.92,307.47ZM227,298a5,5,0,0,1-3.56-1.48l-.33-.34a5,5,0,0,1-.06-7.09,5,5,0,0,1,7-.09l.49.49A5,5,0,0,1,227,298Zm-91.28-3.16a5,5,0,0,1-3.31-8.75l.4-.35a5,5,0,1,1,6.58,7.53l-.36.31A5,5,0,0,1,135.75,294.84Zm78.12-7.2a4.93,4.93,0,0,1-2.57-.72l-.4-.24a5,5,0,1,1,5.09-8.61l.47.29a5,5,0,0,1-2.59,9.28Zm-64.37-2.19a5,5,0,0,1-2.28-9.45l.48-.24a5,5,0,1,1,4.5,8.93l-.42.21A4.91,4.91,0,0,1,149.5,285.45Zm49.15-4.51a5,5,0,0,1-1.42-.21l-.45-.13a5,5,0,0,1,2.76-9.61l.53.15a5,5,0,0,1-1.42,9.8Zm-33.5-1.13a5,5,0,0,1-1.08-9.89l.52-.11a5,5,0,1,1,2.11,9.77l-.46.11A5.12,5.12,0,0,1,165.15,279.81Zm17.08-1.57H182l-.46,0a5,5,0,1,1,.29-10l.55,0a5,5,0,0,1-.19,10Z"/><g id="Ромашка"><path class="cls-9" d="M180.86,336.85c30.26-73.06-32.54-73.06-2.28,0-30.26-73.06-74.66-28.65-1.61,1.61-73-30.26-73,32.53,0,2.27-73,30.26-28.65,74.67,1.61,1.61-30.26,73.06,32.54,73.06,2.28,0,30.26,73.06,74.67,28.65,1.61-1.61,73.06,30.26,73.06-32.53,0-2.27C255.53,308.2,211.12,263.79,180.86,336.85Z"/><circle class="cls-3" cx="179.72" cy="339.6" r="10.76"/></g></g></g></g></svg>