<svg xmlns="http://www.w3.org/2000/svg" viewBox="0 0 359.16 339.6"><defs><style>.cls-1{fill:#6b2d5c;}.cls-2{fill:#f0386b;}.cls-3{fill:#ff5376;}.cls-4{fill:#f7e6cb;}.cls-5{fill:#ed1c24;}.cls-6{fill:#ff7bac;}.cls-7{fill:#fff;}.cls-8{fill:#603813;}.cls-9{fill:#fbb03b;}.cls-10{fill:#f8c0c8;}</style></defs><g id="Layer_2" data-name="Layer 2"><g id="Layer_1-2" data-name="Layer 1"><g id="pink_CUT" data-name="pink CUT"><g id="UP"><path id="Обводка" class="cls-1" d="M65,160.71c0-8.67-3.19-23.35-3.19-40.61C61.85,69.73,106.91,12,179.58,12S297.31,69.73,297.31,120.1c0,17.26-3.19,31.94-3.19,40.61,0,55.4,50.11,88.92,53,178.88h12c-1.66-52.51-18.87-87.48-32.84-115.84-10.84-22-20.2-41-20.2-63a121.75,121.75,0,0,1,1.11-12.23,234.5,234.5,0,0,0,2.08-28.38c0-29-12.77-58.65-35.05-81.34C249.73,13.76,216.1,0,179.58,0S109.43,13.76,84.9,38.76C62.62,61.45,49.85,91.1,49.85,120.1a234.5,234.5,0,0,0,2.08,28.38A121.75,121.75,0,0,1,53,160.71c0,22-9.36,41-20.2,63C18.87,252.11,1.66,287.08,0,339.59H12C14.93,249.63,65,216.11,65,160.71Z"/><g id="Тело"><path class="cls-1" d="M82,314a41.3,41.3,0,0,1,9.22-8.84A41.7,41.7,0,0,1,91,293.34a45.18,45.18,0,0,1,13-26.11,46.19,46.19,0,0,1,26.07-13.17,43.16,43.16,0,0,1,5.88-.41,41.79,41.79,0,0,1,7.19.62,42.22,42.22,0,0,1,8.35-8.66,46.9,46.9,0,0,1,56.2,0,42.22,42.22,0,0,1,8.35,8.66,41.79,41.79,0,0,1,7.19-.62,43.16,43.16,0,0,1,5.88.41,46.25,46.25,0,0,1,26.08,13.17,45.23,45.23,0,0,1,13,26.11,41.63,41.63,0,0,1-.26,11.76,41.57,41.57,0,0,1,9.22,8.85,44.89,44.89,0,0,1,9,25.64h16.27c-26.48-35.24-21.54-84.14,1.69-111.25a19.25,19.25,0,0,0-3.28-6.06c-31.41,27.19-87.5,27.45-121.3,0-33.8,27.45-89.89,27.19-121.3,0A19.25,19.25,0,0,0,55,228.34c23.23,27.11,28.17,76,1.69,111.25H73A44.89,44.89,0,0,1,82,314Z"/><path class="cls-1" d="M176.83,338.46c-73.05-30.26-28.65-74.67,1.61-1.61-30.26-73.06,32.54-73.06,2.28,0,30.26-73.06,74.66-28.65,1.61,1.61,36.52-15.13,54.79-7,54.79,1.13h35a30.86,30.86,0,0,0-6.1-17.14,27.2,27.2,0,0,0-15.39-10,27.44,27.44,0,0,0,3.67-17.34c-1.7-13.57-13.36-25.25-27.13-27.15a28.17,28.17,0,0,0-4-.28,27.52,27.52,0,0,0-14.23,4,27.72,27.72,0,0,0-9.86-14.93,32.89,32.89,0,0,0-39.1,0,27.72,27.72,0,0,0-9.86,14.93,27.55,27.55,0,0,0-14.23-4,28.06,28.06,0,0,0-4,.28c-13.77,1.9-25.43,13.58-27.13,27.15a27.39,27.39,0,0,0,3.68,17.34,27.19,27.19,0,0,0-15.4,10A30.86,30.86,0,0,0,87,339.59h35C122,331.46,140.31,323.33,176.83,338.46Zm73.68-7.13a5,5,0,0,1-4.39,5.55,5.63,5.63,0,0,1-.58,0,5,5,0,1,1,5-5.58Zm-3.61-15.57a5,5,0,1,1-6.39-3A5,5,0,0,1,246.9,315.76ZM233,299.85a5,5,0,1,1,5.35,8.44,4.93,4.93,0,0,1-2.67.78,5,5,0,0,1-2.68-9.22ZM222.82,289a5,5,0,1,1,0,7.08A5,5,0,0,1,222.82,289Zm-12.34-8.36a5,5,0,1,1,4.23,7.65,4.92,4.92,0,0,1-2.64-.76A5,5,0,0,1,210.48,280.59Zm-13.91-5.38a5,5,0,1,1,4.73,6.63,4.9,4.9,0,0,1-1.63-.28A5,5,0,0,1,196.57,275.21Zm-9.42-6.6a5,5,0,0,1-.35,10l-.36,0h0a5,5,0,0,1,.71-10Zm-15.77.26a5,5,0,1,1,1.08,9.94l-.54,0a5,5,0,0,1-.54-10Zm-15.56,3.34a5,5,0,0,1,3.15,9.5,5.06,5.06,0,0,1-1.58.25,5,5,0,0,1-1.57-9.75ZM141.3,279a5,5,0,1,1-1.62,6.88A5,5,0,0,1,141.3,279Zm-12.53,10.06a5,5,0,1,1,.09,7.07A5,5,0,0,1,128.77,289.05ZM119,301.75a5,5,0,1,1,1.71,6.86A5,5,0,0,1,119,301.75Zm-.1,31.16h0a5,5,0,0,1-5,4.45,3.38,3.38,0,0,1-.55,0,5,5,0,1,1,5.52-4.42Zm-1.8-10.07a5.08,5.08,0,0,1-1.58-.26,5,5,0,1,1,1.58.26Z"/></g><g id="Звезды"><path class="cls-2" d="M332.47,305.07l2.92,7.27c-2-20-5.26-26.82-10.49-38.71l-16.3-25.82L321,276.37l-23.35-16.43,20,21.65-26.35-2,25.56,8-23.47,9.52L319.12,294,300,315.17l22.35-15.72-9,32,13.47-28.85,3,37H330Z"/><path class="cls-2" d="M32.4,302.57l13.47,28.85-9-32,22.35,15.72L40,294l25.78,3.15-23.47-9.52,25.56-8-26.35,2,20-21.65L38.17,276.37l12.39-28.56-16.3,25.82c-5.23,11.89-8.48,18.72-10.49,38.71l2.92-7.27,2.46,34.52h.26Z"/></g><g id="Платок"><path class="cls-3" d="M232.75,225c28.76,3.19,53.09-5,62.09-12.33-5.22-8.35-10.77-17.83-11.61-30.55C280.23,204.19,252.9,220.52,232.75,225Z"/><path class="cls-3" d="M216.31,222.28c30.58-3.12,72.79-31.29,62-62.61C272.74,184.52,244.94,213.15,216.31,222.28Z"/><path class="cls-3" d="M192.84,219.05c43.1,0,84.52-37.66,84.52-95.58,0-9.43-.88-18.47-3.43-26.9-46.07,3-88.86-15.75-88.86-61.6,12.46,55.44,72.72,58.1,86.6,56-15.09-39-50.36-60.82-92.09-60.82s-77,21.79-92.09,60.82c13.88,2.15,74.14-.51,86.6-55.95,0,45.85-42.79,64.63-88.86,61.6C82.68,105,81.8,114,81.8,123.47c0,57.92,41.42,95.58,84.52,95.58-47.93,28.34-93,7.86-106,1.21,40.57,31.56,99.2,16.56,119.3-4,20.1,20.54,78.73,35.54,119.3,4C285.88,226.91,240.77,247.39,192.84,219.05Zm-13.26-13.94c-9,0-90.47,1.87-81.76-98.17,23.9-.2,69.68-14.58,81.76-47.25,12.08,32.67,57.86,47.05,81.76,47.25C270.05,207,188.6,205.11,179.58,205.11Z"/><path class="cls-3" d="M126.41,225c-20.15-4.5-47.48-20.83-50.48-42.88-.84,12.72-6.39,22.2-11.61,30.55C73.32,220.06,97.65,228.21,126.41,225Z"/><path class="cls-3" d="M142.85,222.28c-28.63-9.13-56.43-37.76-62-62.61C70.06,191,112.27,219.16,142.85,222.28Z"/></g><g id="Лицо"><path class="cls-4" d="M261.34,106.94c-23.9-.2-69.68-14.58-81.76-47.25-12.08,32.67-57.86,47.05-81.76,47.25-8.71,100,72.74,98.17,81.76,98.17S270.05,207,261.34,106.94Zm-5.94,23.38c-5.46,5.94-12.06,5.11-14.39,4.23.69,2.42.2,5.67-1.56,9.12-.61-2.45-2.47-12.32-10.66-17.58,4.49,3.93,6.79,9.66,5.51,15.32-2,8.69-11.59,13.92-21.49,11.67s-16.32-11.1-14.35-19.79a14,14,0,0,1,1.5-3.83c-4.38,4.61-6.68,10.54-9.47,14.21,1.73-5.08,3.16-8.23,3.12-11.41a2.25,2.25,0,0,1-1.7-.28,5.06,5.06,0,0,0,3.1-2.1,3.14,3.14,0,0,1-2.25-1.1,6.42,6.42,0,0,0,3.84-1.28c-.48-.14-1.27-.22-2.17-2.16a4.66,4.66,0,0,0,4.41-.35,4.1,4.1,0,0,1-2.05-2.68,6.23,6.23,0,0,0,5,.22,3.39,3.39,0,0,1-2.7-2.71,9,9,0,0,0,5.14,1c-.17-.3-2.05-1.53-1.86-3.68a5.39,5.39,0,0,0,5,2.23,5.21,5.21,0,0,1-1.33-4.5,5.91,5.91,0,0,0,4,3.71,5.51,5.51,0,0,1-.33-5.18c.74,2.13,1.94,4.22,3.83,4.61a8.37,8.37,0,0,1,.36-6.16,9.75,9.75,0,0,0,2.92,5.57,10.64,10.64,0,0,1,1.89-6.45c.33,3.81.84,6.5,1.49,6.67,1-.21,2.79-3.15,3.08-6.31,1.89,2.93,1,6.23.17,7,1.3.12,5-3.25,5.44-5.08.55.85.26,4-1.57,6.65,3.52-.42,7.43-2.7,8.87-4.5.13,1.83-1.6,5.81-4.34,6.79,4,.36,8.73-.79,11.39-2.73a8.47,8.47,0,0,1-6.66,6c1.76,1.37,10.59.7,14.63-2.3-1,3.26-6.72,7.41-11.62,7C243.14,132.35,250.06,132.6,255.4,130.32Zm-10.13-12.2C238.1,111,229.86,106,217.37,106c-11.43,0-18.79,4.48-29.82,11.69,10.18-11.18,17.61-15.31,29.2-15.31C230.38,102.39,238.81,108.11,245.27,118.12ZM179.58,77.23c3.86,12.49,9.74,13,15.54,14.71-5.61,1.7-12.9,1.74-15.54,17-2.64-15.22-9.93-15.26-15.54-17C169.84,90.19,175.72,89.72,179.58,77.23Zm-37.17,25.16c11.59,0,19,4.13,29.2,15.31-11-7.21-18.39-11.69-29.82-11.69-12.49,0-20.73,4.94-27.9,12.11C120.35,108.11,128.78,102.39,142.41,102.39Zm-38.65,27.93c5.34,2.28,12.26,2,15.86-.25-4.9.4-10.58-3.75-11.62-7,4,3,12.87,3.67,14.63,2.3a8.47,8.47,0,0,1-6.66-6c2.66,1.94,7.42,3.09,11.39,2.73-2.74-1-4.47-5-4.34-6.79,1.43,1.8,5.35,4.08,8.87,4.5-1.83-2.67-2.12-5.8-1.57-6.65.46,1.83,4.14,5.2,5.44,5.08-.84-.77-1.72-4.07.17-7,.29,3.16,2.12,6.1,3.08,6.31.65-.17,1.16-2.86,1.49-6.67a10.64,10.64,0,0,1,1.89,6.45,9.75,9.75,0,0,0,2.92-5.57,8.37,8.37,0,0,1,.36,6.16c1.89-.39,3.09-2.48,3.83-4.61a5.51,5.51,0,0,1-.33,5.18,5.91,5.91,0,0,0,4-3.71,5.21,5.21,0,0,1-1.33,4.5,5.39,5.39,0,0,0,5-2.23c.19,2.15-1.69,3.38-1.86,3.68a9,9,0,0,0,5.14-1,3.39,3.39,0,0,1-2.7,2.71,6.23,6.23,0,0,0,5-.22,4.1,4.1,0,0,1-2.05,2.68,4.66,4.66,0,0,0,4.41.35c-.9,1.94-1.69,2-2.17,2.16a6.42,6.42,0,0,0,3.84,1.28,3.14,3.14,0,0,1-2.25,1.1,5.06,5.06,0,0,0,3.1,2.1,2.25,2.25,0,0,1-1.7.28c0,3.18,1.39,6.33,3.12,11.41-2.79-3.67-5.09-9.6-9.47-14.21a14,14,0,0,1,1.5,3.83c2,8.69-4.46,17.55-14.35,19.79s-19.52-3-21.49-11.67c-1.28-5.66,1-11.39,5.51-15.32-8.19,5.26-10.05,15.13-10.66,17.58-1.76-3.45-2.25-6.7-1.56-9.12C115.82,135.43,109.22,136.26,103.76,130.32Zm31.37,53c-8.47.68-15.78-4.21-16.31-10.92s5.89-12.7,14.37-13.38,15.77,4.22,16.31,10.93S143.6,182.61,135.13,183.29Zm44.45,7.14c-15,0-24.8-11.34-24.8-16.58,4.31,3.38,11.5,8.29,16.24,1.67,1.91,4.1,6.9,4.5,8.56,4.5s6.65-.4,8.56-4.5c4.74,6.62,11.93,1.71,16.24-1.67C204.38,179.09,194.6,190.43,179.58,190.43ZM224,183.29c-8.47-.68-14.9-6.67-14.37-13.37S217.5,158.32,226,159s14.91,6.67,14.37,13.38S232.5,184,224,183.29Z"/><path id="Рот" class="cls-5" d="M188.14,175.52c-1.91,4.1-6.9,4.5-8.56,4.5s-6.65-.4-8.56-4.5c-4.74,6.62-11.93,1.71-16.24-1.67,0,5.24,9.78,16.58,24.8,16.58s24.8-11.34,24.8-16.58C200.07,177.23,192.88,182.14,188.14,175.52Z"/><g id="Румяна"><ellipse class="cls-6" cx="225" cy="171.14" rx="12.19" ry="15.39" transform="translate(36.48 381.8) rotate(-85.43)"/><ellipse class="cls-6" cx="134.16" cy="171.14" rx="15.39" ry="12.19" transform="translate(-13.21 11.23) rotate(-4.57)"/></g><g id="Правый_глаз" data-name="Правый глаз"><path d="M200,129.46a14,14,0,0,0-1.5,3.83c-2,8.69,4.46,17.55,14.35,19.79s19.52-3,21.49-11.67c1.28-5.66-1-11.39-5.51-15.32a22.39,22.39,0,0,0-12.38-3.33C208.56,122.76,203.56,125.66,200,129.46ZM221.28,137a6.95,6.95,0,1,1-6.94-6.94A6.95,6.95,0,0,1,221.28,137Z"/><path d="M251.16,123.06c-4,3-12.87,3.67-14.63,2.3a8.47,8.47,0,0,0,6.66-6c-2.66,1.94-7.42,3.09-11.39,2.73,2.74-1,4.47-5,4.34-6.79-1.44,1.8-5.35,4.08-8.87,4.5,1.83-2.67,2.12-5.8,1.57-6.65-.46,1.83-4.14,5.2-5.44,5.08.84-.77,1.72-4.07-.17-7-.29,3.16-2.12,6.1-3.08,6.31-.65-.17-1.16-2.86-1.49-6.67a10.64,10.64,0,0,0-1.89,6.45,9.75,9.75,0,0,1-2.92-5.57,8.37,8.37,0,0,0-.36,6.16c-1.89-.39-3.09-2.48-3.83-4.61a5.51,5.51,0,0,0,.33,5.18,5.91,5.91,0,0,1-4-3.71,5.21,5.21,0,0,0,1.33,4.5,5.39,5.39,0,0,1-5-2.23c-.19,2.15,1.69,3.38,1.86,3.68a9,9,0,0,1-5.14-1,3.39,3.39,0,0,0,2.7,2.71,6.23,6.23,0,0,1-5-.22,4.1,4.1,0,0,0,2.05,2.68,4.66,4.66,0,0,1-4.41.35c.9,1.94,1.69,2,2.17,2.16a6.42,6.42,0,0,1-3.84,1.28,3.14,3.14,0,0,0,2.25,1.1,5.06,5.06,0,0,1-3.1,2.1,2.25,2.25,0,0,0,1.7.28c0,3.18-1.39,6.33-3.12,11.41,2.79-3.67,5.09-9.6,9.47-14.21,3.54-6.31,11.65-9.73,20-7.84a20.19,20.19,0,0,1,8.85,4.47c8.19,5.26,10.05,15.13,10.66,17.58,1.76-3.45,2.25-6.7,1.56-9.12,2.33.88,8.93,1.71,14.39-4.23-5.34,2.28-12.26,2-15.86-.25C244.44,130.47,250.12,126.32,251.16,123.06Z"/><path d="M200,129.46c3.6-3.8,8.6-6.7,16.45-6.7a22.39,22.39,0,0,1,12.38,3.33,20.19,20.19,0,0,0-8.85-4.47C211.61,119.73,203.5,123.15,200,129.46Z"/><circle class="cls-7" cx="214.34" cy="136.97" r="6.95" transform="translate(-34.08 191.68) rotate(-45)"/></g><g id="Левый_глаз" data-name="Левый глаз"><path d="M142.75,122.76a22.39,22.39,0,0,0-12.38,3.33c-4.49,3.93-6.79,9.66-5.51,15.32,2,8.69,11.59,13.92,21.49,11.67s16.32-11.1,14.35-19.79a14,14,0,0,0-1.5-3.83C155.6,125.66,150.6,122.76,142.75,122.76Zm2.07,21.16a6.95,6.95,0,1,1,7-6.95A6.95,6.95,0,0,1,144.82,143.92Z"/><path d="M119.71,143.67c.61-2.45,2.47-12.32,10.66-17.58a20.19,20.19,0,0,1,8.85-4.47c8.33-1.89,16.44,1.53,20,7.84,4.38,4.61,6.68,10.54,9.47,14.21-1.73-5.08-3.16-8.23-3.12-11.41a2.25,2.25,0,0,0,1.7-.28,5.06,5.06,0,0,1-3.1-2.1,3.14,3.14,0,0,0,2.25-1.1,6.42,6.42,0,0,1-3.84-1.28c.48-.14,1.27-.22,2.17-2.16a4.66,4.66,0,0,1-4.41-.35,4.1,4.1,0,0,0,2.05-2.68,6.23,6.23,0,0,1-5,.22,3.39,3.39,0,0,0,2.7-2.71,9,9,0,0,1-5.14,1c.17-.3,2.05-1.53,1.86-3.68a5.39,5.39,0,0,1-5,2.23,5.21,5.21,0,0,0,1.33-4.5,5.91,5.91,0,0,1-4,3.71,5.51,5.51,0,0,0,.33-5.18c-.74,2.13-1.94,4.22-3.83,4.61a8.37,8.37,0,0,0-.36-6.16,9.75,9.75,0,0,1-2.92,5.57,10.64,10.64,0,0,0-1.89-6.45c-.33,3.81-.84,6.5-1.49,6.67-1-.21-2.79-3.15-3.08-6.31-1.89,2.93-1,6.23-.17,7-1.3.12-5-3.25-5.44-5.08-.55.85-.26,4,1.57,6.65-3.52-.42-7.44-2.7-8.87-4.5-.13,1.83,1.6,5.81,4.34,6.79-4,.36-8.73-.79-11.39-2.73a8.47,8.47,0,0,0,6.66,6c-1.76,1.37-10.59.7-14.63-2.3,1,3.26,6.72,7.41,11.62,7-3.6,2.28-10.52,2.53-15.86.25,5.46,5.94,12.06,5.11,14.39,4.23C117.46,137,118,140.22,119.71,143.67Z"/><path d="M139.22,121.62a20.19,20.19,0,0,0-8.85,4.47,22.39,22.39,0,0,1,12.38-3.33c7.85,0,12.85,2.9,16.45,6.7C155.66,123.15,147.55,119.73,139.22,121.62Z"/><circle class="cls-7" cx="144.82" cy="136.97" r="6.95" transform="translate(-54.44 142.52) rotate(-45)"/></g><g id="Брови"><path class="cls-8" d="M187.55,117.7c11-7.21,18.39-11.69,29.82-11.69,12.49,0,20.73,4.94,27.9,12.11-6.46-10-14.89-15.73-28.52-15.73C205.16,102.39,197.73,106.52,187.55,117.7Z"/><path class="cls-8" d="M171.61,117.7c-10.18-11.18-17.61-15.31-29.2-15.31-13.63,0-22.06,5.72-28.52,15.73C121.06,111,129.3,106,141.79,106,153.22,106,160.58,110.49,171.61,117.7Z"/></g><path id="Звезда" class="cls-9" d="M179.58,108.9c2.64-15.22,9.93-15.26,15.54-17-5.8-1.75-11.68-2.22-15.54-14.71-3.86,12.49-9.74,13-15.54,14.71C169.65,93.64,176.94,93.68,179.58,108.9Z"/></g><path id="Цветок_обводка" data-name="Цветок обводка" class="cls-10" d="M267.94,305.1a41.63,41.63,0,0,0,.26-11.76,45.23,45.23,0,0,0-13-26.11,46.25,46.25,0,0,0-26.08-13.17,43.16,43.16,0,0,0-5.88-.41,41.79,41.79,0,0,0-7.19.62,42.22,42.22,0,0,0-8.35-8.66,46.9,46.9,0,0,0-56.2,0,42.22,42.22,0,0,0-8.35,8.66,41.79,41.79,0,0,0-7.19-.62,43.16,43.16,0,0,0-5.88.41A46.19,46.19,0,0,0,104,267.23a45.18,45.18,0,0,0-13,26.11,41.7,41.7,0,0,0,.26,11.77A41.3,41.3,0,0,0,82,314a44.89,44.89,0,0,0-9,25.64H87a30.86,30.86,0,0,1,6.1-17.14,27.19,27.19,0,0,1,15.4-10,27.39,27.39,0,0,1-3.68-17.34c1.7-13.57,13.36-25.25,27.13-27.15a28.06,28.06,0,0,1,4-.28,27.55,27.55,0,0,1,14.23,4A27.72,27.72,0,0,1,160,256.7a32.89,32.89,0,0,1,39.1,0A27.72,27.72,0,0,1,209,271.63a27.52,27.52,0,0,1,14.23-4,28.17,28.17,0,0,1,4,.28c13.77,1.9,25.43,13.58,27.13,27.15a27.44,27.44,0,0,1-3.67,17.34,27.2,27.2,0,0,1,15.39,10,30.86,30.86,0,0,1,6.1,17.14H286.2a44.89,44.89,0,0,0-9-25.64A41.57,41.57,0,0,0,267.94,305.1Z"/><g id="Кружочки"><path class="cls-3" d="M157.39,282a5.06,5.06,0,0,0,1.58-.25,5,5,0,1,0-1.58.25Z"/><path class="cls-3" d="M143.94,288.24a5,5,0,1,0-4.26-2.37A5,5,0,0,0,143.94,288.24Z"/><path class="cls-3" d="M120.71,308.61a5,5,0,0,0,6.86-1.72,5,5,0,1,0-6.86,1.72Z"/><path class="cls-3" d="M132.35,297.54a5,5,0,1,0-3.49-1.42A5,5,0,0,0,132.35,297.54Z"/><path class="cls-3" d="M171.92,278.84l.54,0a5,5,0,1,0-.54,0Z"/><path class="cls-3" d="M114.48,327.39a5,5,0,0,0-1.1,9.94,3.38,3.38,0,0,0,.55,0,5,5,0,0,0,5-4.45h0A5,5,0,0,0,114.48,327.39Z"/><path class="cls-3" d="M237.47,319.1a5,5,0,0,0,4.71,3.33,5,5,0,1,0-4.71-3.33Z"/><path class="cls-3" d="M226.37,297.48a5,5,0,1,0-3.53-1.45A5,5,0,0,0,226.37,297.48Z"/><path class="cls-3" d="M245,326.94a5,5,0,0,0,.57,10,5.63,5.63,0,0,0,.58,0,5,5,0,0,0-1.15-9.94Z"/><path class="cls-3" d="M212.07,287.48a4.92,4.92,0,0,0,2.64.76,5,5,0,1,0-2.64-.76Z"/><path class="cls-3" d="M186.44,278.59h0l.36,0a5,5,0,1,0-.36,0Z"/><path class="cls-3" d="M199.67,281.56a4.9,4.9,0,0,0,1.63.28,5,5,0,1,0-1.63-.28Z"/><path class="cls-3" d="M231.45,306.75a5,5,0,0,0,4.23,2.32,4.93,4.93,0,0,0,2.67-.78,5,5,0,1,0-6.9-1.54Z"/><path class="cls-3" d="M118.67,313.09a5,5,0,0,0-3.15,9.49,5.08,5.08,0,0,0,1.58.26,5,5,0,0,0,1.57-9.75Z"/></g><path id="Лепестки" class="cls-7" d="M182.33,338.46c73-30.26,28.65-74.67-1.61-1.61,30.26-73.06-32.54-73.06-2.28,0-30.26-73.06-74.66-28.65-1.61,1.61-36.52-15.13-54.79-7-54.79,1.13H237.12C237.12,331.46,218.85,323.33,182.33,338.46Z"/><path id="Серединка" class="cls-10" d="M168.82,339.6a10.76,10.76,0,1,1,21.52,0"/></g></g></g></g></svg>