<svg xmlns="http://www.w3.org/2000/svg" viewBox="0 0 359.45 197.46"><defs><style>.cls-1{fill:#004e64;}.cls-2{fill:#006837;}.cls-3{fill:#7ae582;}.cls-4{fill:#25a18e;}.cls-5{fill:#fff;}</style></defs><g id="Layer_2" data-name="Layer 2"><g id="Layer_1-2" data-name="Layer 1"><g id="turquoise_CUT" data-name="turquoise CUT"><g id="DOWN"><path id="Обводка" class="cls-1" d="M347.31,0q.13,4.06.14,8.29c0,39.85-27.88,111.07-65.06,135,0,9.85,5.87,42.17-102.67,42.17S77.05,153.14,77.05,143.29c-37.17-23.93-65-95.15-65-135q0-4.23.14-8.29H.14C.06,2.72,0,5.48,0,8.29c0,21.79,7.34,51.1,19.65,78.4,7.45,16.54,22.86,45.57,45.43,62.83a36,36,0,0,0,10.47,23.79c15.86,16.25,49.93,24.15,104.17,24.15s88.32-7.9,104.18-24.15a36.06,36.06,0,0,0,10.47-23.79c22.57-17.26,38-46.29,45.43-62.83,12.3-27.3,19.65-56.61,19.65-78.4,0-2.81-.06-5.57-.15-8.29Z"/><g id="Ноги"><path class="cls-2" d="M90.88,146c2.48,25,61.11,27.45,88.84,27.45S266.09,171,268.57,146c-26.81,15.84-64.24,17.47-88.85,17.47S117.68,161.81,90.88,146Z"/><path class="cls-2" d="M55.27,104.88c29.61,49.89,95.55,51.39,124.45,51.39s94.85-1.5,124.45-51.39c-33.52,27-81.5,36.6-124.45,36.6S88.79,131.88,55.27,104.88Z"/><path class="cls-2" d="M301.57,88.31c-4-2.26-10.41-8.12-12.3-12.16-.9,15.26-9.88,30.1-17.74,33.29a26,26,0,0,1-13.66-12c-3.77,13.31-14,22.62-22.14,25.16-6.23-.54-11.15-4.11-15.71-9.82-7.56,14.48-24,21.84-24,21.84,63.46-1,108.82-36,111.66-39.05,2.61-2.83,12.39-11,15-25.39-1.37-2.21-5.48-9.55-7.54-13.66C314.67,64.25,310.49,79.72,301.57,88.31Z"/><path class="cls-2" d="M139.42,112.78c-4.55,5.71-9.47,9.28-15.7,9.82-8.12-2.54-18.38-11.85-22.14-25.16a26,26,0,0,1-13.67,12c-7.86-3.19-16.84-18-17.74-33.29-1.89,4-8.34,9.9-12.29,12.16C49,79.72,44.77,64.25,44.28,56.52,42.23,60.63,38.12,68,36.75,70.18c2.61,14.35,12.39,22.56,15,25.39,2.84,3.07,48.2,38,111.65,39.05C163.4,134.62,147,127.26,139.42,112.78Z"/></g><g id="Тело"><path class="cls-3" d="M22.21,28.05c.58,11.87,6.45,26.68,11.31,38.06C38.61,58.57,44,47.23,48.39,36.56c-1.07,20.84,2.69,36,9.88,46.67,5.82-4.5,10.18-8.74,14.61-20.35.26,15.91,2.8,31.89,14.94,42,7.5-4.31,10.23-8.15,15.16-17.25,3.42,17.25,14.84,27.75,21.23,30,5.15-1.56,12.42-7,15.16-14.28,8.41,17.61,24.95,30.23,40.35,30.23s31.94-12.62,40.36-30.23c2.74,7.24,10,12.72,15.16,14.28,6.38-2.28,17.8-12.78,21.23-30,4.92,9.1,7.66,12.94,15.16,17.25,12.13-10.11,14.67-26.09,14.94-42,4.43,11.61,8.78,15.85,14.6,20.35,7.2-10.64,11-25.83,9.88-46.67,4.41,10.67,9.79,22,14.87,29.55,4.86-11.38,10.73-26.19,11.31-38.06A94.31,94.31,0,0,1,302.62,0H286.35a45.2,45.2,0,0,1-9.05,29.05,41,41,0,0,1-9.21,8.84,41.63,41.63,0,0,1,.25,11.77,45.26,45.26,0,0,1-13,26.11,46.19,46.19,0,0,1-26.08,13.17,43.12,43.12,0,0,1-5.87.41,42,42,0,0,1-7.2-.62,42.49,42.49,0,0,1-8.35,8.66,46.89,46.89,0,0,1-56.19,0,42.22,42.22,0,0,1-8.35-8.66,42,42,0,0,1-7.19.62,43,43,0,0,1-5.88-.41,46.19,46.19,0,0,1-26.08-13.17,45.27,45.27,0,0,1-13-26.11,41.7,41.7,0,0,1,.26-11.77,41.3,41.3,0,0,1-9.22-8.84,45.19,45.19,0,0,1-9-29H56.83A94.35,94.35,0,0,1,22.21,28.05Z"/><path class="cls-3" d="M93.27,20.55a27.22,27.22,0,0,0,15.4,10A27.37,27.37,0,0,0,105,47.92c1.69,13.57,13.35,25.24,27.13,27.15a28,28,0,0,0,4,.28,27.48,27.48,0,0,0,14.22-4,27.72,27.72,0,0,0,9.87,14.93,32.88,32.88,0,0,0,39.09,0,27.67,27.67,0,0,0,9.86-14.93,27.55,27.55,0,0,0,14.24,4,27.92,27.92,0,0,0,3.95-.28c13.77-1.91,25.44-13.58,27.13-27.15a27.37,27.37,0,0,0-3.67-17.34,27.22,27.22,0,0,0,15.4-10A31.32,31.32,0,0,0,272.27,0h-35c0,8.14-18.26,16.27-54.79,1.14,73.06,30.26,28.65,74.67-1.61,1.61,30.26,73.06-32.54,73.06-2.28,0C148.32,75.81,103.92,31.4,177,1.14c-36.53,15.13-54.79,7-54.79-1.14h-35A31.26,31.26,0,0,0,93.27,20.55ZM240.74,6.8s0-.06,0-.09,0,0,0-.08h0a5,5,0,1,1,9.94,1.07.28.28,0,0,1,0,.09s0,.07,0,.1a5,5,0,0,1-5,4.45,5.12,5.12,0,0,1-.56,0A5,5,0,0,1,240.74,6.8Zm-3,13.41a5,5,0,1,1,4.73,6.64,4.92,4.92,0,0,1-1.64-.28A5,5,0,0,1,237.71,20.21ZM231.77,32.6A5,5,0,1,1,236,40.25a4.93,4.93,0,0,1-2.65-.76A5,5,0,0,1,231.77,32.6ZM223.2,43.35a5,5,0,0,1,7.08,7.06h0a5,5,0,0,1-3.54,1.46,4.94,4.94,0,0,1-3.53-1.46A5,5,0,0,1,223.2,43.35Zm-10.74,8.59a5,5,0,1,1-1.56,6.9A5,5,0,0,1,212.46,51.94Zm-12.36,6a5,5,0,0,1,3.32,9.44,5.08,5.08,0,0,1-1.66.28,5,5,0,0,1-1.66-9.72ZM186.71,61A5,5,0,0,1,187.84,71a5.44,5.44,0,0,1-.57,0,5,5,0,0,1-.56-10Zm-19.27,4.44a5,5,0,1,1,5,5.55,5.28,5.28,0,0,1-.55,0A5,5,0,0,1,167.44,65.45ZM153.22,60.9a5,5,0,1,1,3.12,6.35A5,5,0,0,1,153.22,60.9Zm-13.06-7.16a5,5,0,1,1,1.72,6.86A5,5,0,0,1,140.16,53.74Zm-4-10.06a5,5,0,1,1-7.07.07A5,5,0,0,1,136.16,43.68ZM127.63,33h0A5,5,0,0,1,126,39.9,5,5,0,1,1,127.63,33ZM121.84,20.6a5,5,0,0,1-3.17,6.32,4.8,4.8,0,0,1-1.58.26,5,5,0,1,1,4.75-6.58ZM113.49,2.66a5,5,0,1,1,1,10,4.36,4.36,0,0,1-.51,0,5,5,0,0,1-.5-10Z"/></g><path id="Цветок_обводка" data-name="Цветок обводка" class="cls-1" d="M266.18,20.55a27.22,27.22,0,0,1-15.4,10,27.37,27.37,0,0,1,3.67,17.34c-1.69,13.57-13.36,25.24-27.13,27.15a27.92,27.92,0,0,1-3.95.28,27.55,27.55,0,0,1-14.24-4,27.67,27.67,0,0,1-9.86,14.93,32.88,32.88,0,0,1-39.09,0,27.72,27.72,0,0,1-9.87-14.93,27.48,27.48,0,0,1-14.22,4,28,28,0,0,1-4-.28C118.35,73.16,106.69,61.49,105,47.92a27.37,27.37,0,0,1,3.67-17.34,27.22,27.22,0,0,1-15.4-10A31.26,31.26,0,0,1,87.18,0H73.1a45.19,45.19,0,0,0,9,29.05,41.3,41.3,0,0,0,9.22,8.84,41.7,41.7,0,0,0-.26,11.77,45.27,45.27,0,0,0,13,26.11,46.19,46.19,0,0,0,26.08,13.17,43,43,0,0,0,5.88.41,42,42,0,0,0,7.19-.62,42.22,42.22,0,0,0,8.35,8.66,46.89,46.89,0,0,0,56.19,0,42.49,42.49,0,0,0,8.35-8.66,42,42,0,0,0,7.2.62,43.12,43.12,0,0,0,5.87-.41,46.19,46.19,0,0,0,26.08-13.17,45.26,45.26,0,0,0,13-26.11,41.63,41.63,0,0,0-.25-11.77,41,41,0,0,0,9.21-8.84,45.2,45.2,0,0,0,9.05-29H272.27A31.32,31.32,0,0,1,266.18,20.55Z"/><g id="Кружочки"><path class="cls-4" d="M141.88,60.6a5,5,0,1,0-1.72-6.86A5,5,0,0,0,141.88,60.6Z"/><path class="cls-4" d="M129.17,50.83a5,5,0,1,0-.08-7.08A5,5,0,0,0,129.17,50.83Z"/><path class="cls-4" d="M114,12.64a4.36,4.36,0,0,0,.51,0,5,5,0,1,0-.51,0Z"/><path class="cls-4" d="M119.13,38.28a5,5,0,1,0,8.5-5.27h0a5,5,0,1,0-8.5,5.26Z"/><path class="cls-4" d="M171.86,71a5.28,5.28,0,0,0,.55,0,5.08,5.08,0,1,0-.55,0Z"/><path class="cls-4" d="M115.52,17.43a5,5,0,0,0,1.57,9.75,4.8,4.8,0,0,0,1.58-.26,5,5,0,1,0-3.15-9.49Z"/><path class="cls-4" d="M156.34,67.25a5,5,0,1,0-3.12-6.35A5,5,0,0,0,156.34,67.25Z"/><path class="cls-4" d="M240.8,26.57a4.92,4.92,0,0,0,1.64.28,5,5,0,1,0-1.64-.28Z"/><path class="cls-4" d="M245.16,12.32a5.12,5.12,0,0,0,.56,0,5,5,0,0,0,5-4.45s0-.07,0-.1a.28.28,0,0,0,0-.09,5,5,0,1,0-9.94-1.07h0s0,.06,0,.08,0,.06,0,.09A5,5,0,0,0,245.16,12.32Z"/><path class="cls-4" d="M233.35,39.49a4.93,4.93,0,0,0,2.65.76,5,5,0,1,0-2.65-.76Z"/><path class="cls-4" d="M187.27,71a5.44,5.44,0,0,0,.57,0,5,5,0,1,0-.57,0Z"/><path class="cls-4" d="M226.74,51.88a5,5,0,0,0,3.54-1.46h0a5,5,0,1,0-7.07,0A4.94,4.94,0,0,0,226.74,51.88Z"/><path class="cls-4" d="M215.14,61.17a5,5,0,1,0-4.24-2.33A5,5,0,0,0,215.14,61.17Z"/><path class="cls-4" d="M201.76,67.65a5.08,5.08,0,0,0,1.66-.28,5,5,0,1,0-1.66.28Z"/></g><path id="Лепестки" class="cls-5" d="M177,1.14c-73,30.26-28.65,74.67,1.61,1.61-30.26,73.06,32.54,73.06,2.28,0,30.26,73.06,74.67,28.65,1.61-1.61,36.53,15.13,54.8,7,54.79-1.14H122.18C122.18,8.14,140.44,16.27,177,1.14Z"/><path id="Серединка" class="cls-4" d="M190.48,0a10.76,10.76,0,0,1-10.76,10.76A10.76,10.76,0,0,1,169,0"/></g></g></g></g></svg>